<svg xmlns="http://www.w3.org/2000/svg" viewBox="0 0 100 100">
  <path d="M37.4 65.4s-3.4 2 2.4 2.7c7 .9 10.6 .7 18.4-.7 0 0 2 1.3 4.9 2.4-17.5 7.5-39.6-.4-25.7-4.4z" fill="#F89820"/>
  <path d="M35.2 56.2s-3.8 2.8 2 3.4c7.5.7 13.3.8 23.5-1 0 0 1.4 1.4 3.6 2.2-20.8 6-44 .5-29.1-4.6z" fill="#F89820"/>
  <path d="M51.9 37.5c4.2 4.9-.5 9.3-.5 9.3s10.7-5.5 5.8-12.4c-4.6-6.4-8.2-9.6 11-20.6 0 0-30 7.5-16.3 23.7z" fill="#F89820"/>
  <path d="M67.6 71.3s2.5 2.1-2.8 3.7c-10 3-41.7 3.9-50.5.1-3.2-1.4 2.8-3.3 4.6-3.7 1.9-.4 3-.4 3-.4-3.4-2.4-22.2 4.7-9.5 6.8 34.5 5.6 62.9-2.5 55.2-6.5z" fill="#F89820"/>
  <path d="M39 46.2s-15.6 3.7-5.5 5c4.2.6 12.6.4 20.4-.2 6.4-.5 12.8-1.6 12.8-1.6s-2.3 1-3.9 2.1c-15.8 4.1-46.4 2.2-37.6-2 7.4-3.6 13.8-3.3 13.8-3.3z" fill="#F89820"/>
  <path d="M60.3 62c16.1-8.4 8.6-16.4 3.4-15.3-1.3.3-1.9.5-1.9.5s.5-.8 1.4-1.1c10.4-3.7 18.5 10.8-3.3 16.5 0 0 .2-.2.4-.6z" fill="#F89820"/>
  <path d="M55.1 0s8.9 8.9-8.4 22.6c-13.9 10.9-3.2 17.2 0 24.3-8.1-7.3-14-13.7-10-19.7C42.7 18.4 57.6 14.7 55.1 0z" fill="#F89820"/>
  <path d="M40.7 87.9c15.5 1 39.3-.5 39.9-7.4 0 0-1.1 2.8-12.8 5-13.3 2.6-29.7 2.3-39.4.6 0 0 2 1.6 12.3 1.8z" fill="#F89820"/>
</svg>
