<svg xmlns="http://www.w3.org/2000/svg" viewBox="0 0 400 400">
  <rect width="400" height="400" rx="50" fill="#3178C6"/>
  <path d="M87.7 200.7V217h52v148h36.9V217h52v-16c0-9 0-16.3-.4-16.5 0-.3-31.7-.4-70.2-.4l-70 .3v16.3zM321.4 184c10.2 2.4 18 7 25 14.3 3.7 4 9.2 11 9.6 12.8 0 .5-17.3 12.3-27.8 18.8-.4.3-2-1.4-3.6-4-5.2-7.4-10.5-10.6-18.8-11.2-12.1-.8-20 5.5-20 16 0 3.2.5 5 1.8 7.6 2.7 5.5 7.7 8.8 23.2 15.6 28.6 12.3 40.9 20.4 48.4 32 8.4 13 10.3 33.4 4.7 48.7-6.4 16.7-22 28-44.3 31.8-7 1.2-23.3 1-30.7-.3-16.2-2.8-31.5-10.8-41-21.3-3.7-4.2-10.9-15.4-10.5-16.2.2-.3 1.8-1.3 3.6-2.3l14.9-8.6 11.5-6.6 2.4 3.4c3.3 5.2 10.7 12.2 15.1 14.5 12.7 6.7 30.1 5.7 38.7-2 3.7-3.4 5.3-7 5.3-12.2 0-4.7-.6-6.7-3-10.2-3.2-4.4-9.6-8-27.6-16-20.7-8.9-29.5-14.4-37.7-23.2a51.9 51.9 0 0 1-10.6-23.2c-1.4-9.5-.2-26.5 2.4-34 6.7-19.5 24.2-33 45.8-36.4 6.3-1 21-.6 27.2.8z" fill="white"/>
</svg>
